<svg width="129" height="32" viewBox="0 0 129 32" fill="none" xmlns="http://www.w3.org/2000/svg">
<g clip-path="url(#clip0_8177_755)">
<path d="M47.8297 0C48.077 0.168501 48.2724 0.402537 48.3938 0.675789C48.5152 0.949041 48.5578 1.25067 48.5168 1.54676C48.5031 11.1869 48.5031 20.8224 48.5168 30.4532C48.5486 30.7486 48.5018 31.0471 48.3812 31.3186C48.2605 31.5902 48.0703 31.8252 47.8297 32H0V0H47.8297ZM2.18265 29.8132H46.2937V2.15987H2.18265V29.8132Z" fill="#141414"/>
<path d="M54.7287 18.6468H58.0835C58.1239 18.8318 58.1644 18.9775 58.1913 19.1362C58.2454 19.6718 58.4652 20.1773 58.82 20.5827C59.1749 20.9881 59.6473 21.2733 60.1719 21.3988C61.2713 21.7476 62.4554 21.7244 63.5401 21.3326C63.9119 21.2427 64.2438 21.0335 64.4848 20.737C64.7258 20.4406 64.8625 20.0733 64.874 19.6917C64.8899 19.3192 64.7766 18.9527 64.5533 18.6538C64.33 18.3549 64.0102 18.1419 63.6479 18.0509C62.3949 17.6276 61.115 17.3361 59.8485 16.9392C58.9453 16.6933 58.0696 16.3563 57.2347 15.9335C54.4323 14.412 54.8634 10.6936 56.7497 9.17208C58.0933 8.23913 59.6824 7.72154 61.3188 7.68386C62.9552 7.64617 64.5665 8.09007 65.9518 8.96018C66.5413 9.40418 67.0145 9.98374 67.3312 10.6495C67.6479 11.3153 67.7987 12.0476 67.7707 12.784H64.4003C63.7536 10.7199 62.4062 9.9659 60.2505 10.4817C59.8626 10.5782 59.5027 10.7641 59.1996 11.0243C58.9955 11.1814 58.8384 11.3912 58.7451 11.631C58.6518 11.8708 58.6259 12.1314 58.6703 12.3848C58.7147 12.6382 58.8276 12.8746 58.9969 13.0686C59.1662 13.2626 59.3854 13.4067 59.6308 13.4854C60.9781 13.9484 62.3793 14.2528 63.7536 14.6632C64.4488 14.8385 65.1291 15.0685 65.788 15.351C69.3853 17.0183 68.7117 21.3713 66.5021 22.9724C63.7266 24.9968 58.4451 24.7321 56.1143 22.4034C55.6304 21.9105 55.2567 21.3209 55.0179 20.6734C54.779 20.0258 54.6805 19.3351 54.7287 18.6468Z" fill="#141414"/>
<path d="M115.68 20.3944C115.208 22.5994 113.443 24.0246 110.924 24.2935C108.135 24.5893 105.75 23.2313 104.793 20.8246C103.689 18.0549 104.457 14.8145 106.666 13.228C107.511 12.5846 108.516 12.1834 109.572 12.0673C110.629 11.9512 111.697 12.1247 112.662 12.5692C114.669 13.4162 115.585 15.1103 115.882 17.1809C115.963 17.7456 115.963 18.3103 116.003 18.9423H107.609C107.517 19.4902 107.608 20.0531 107.869 20.544C108.13 21.035 108.545 21.4265 109.051 21.6582C110.304 22.1826 111.948 21.8465 112.662 20.8381C112.755 20.6807 112.894 20.5545 113.059 20.4755C113.225 20.3965 113.41 20.3683 113.591 20.3944C114.279 20.4078 114.979 20.3944 115.68 20.3944ZM112.675 16.8851C112.487 15.2313 111.597 14.4515 109.994 14.5053C109.678 14.4999 109.364 14.5576 109.071 14.6749C108.778 14.7923 108.511 14.967 108.286 15.1887C108.062 15.4104 107.884 15.6747 107.763 15.966C107.642 16.2573 107.581 16.5698 107.582 16.8851H112.675Z" fill="#141414"/>
<path d="M94.5682 18.9147C94.6086 20.4878 95.1745 21.3752 96.2524 21.7248C96.882 21.9425 97.5642 21.9571 98.2026 21.7665C98.841 21.5759 99.403 21.1897 99.8093 20.6626C99.8669 20.5908 99.9383 20.5313 100.019 20.4874C100.1 20.4435 100.189 20.4162 100.281 20.4071C101.062 20.3802 101.844 20.3937 102.733 20.3937C102.261 21.8861 101.493 23.0559 100.119 23.7012C96.8317 25.2474 91.402 24.1046 91.3481 18.3231C91.3077 14.5455 93.7749 12.0441 97.4515 12.0715C100.443 12.0984 102.76 14.411 102.949 17.5841C102.975 18.0009 102.949 18.4312 102.949 18.9152L94.5682 18.9147ZM99.6745 16.8844C99.4455 15.15 98.4889 14.3701 96.8317 14.5046C96.5287 14.5136 96.2304 14.5825 95.9542 14.7073C95.678 14.832 95.4293 15.0103 95.2226 15.2316C95.0158 15.4529 94.8551 15.7129 94.7497 15.9966C94.6444 16.2803 94.5964 16.5821 94.6086 16.8844H99.6745Z" fill="#141414"/>
<path d="M128.791 24.0129H125.665V23.2868C125.651 21.2028 125.638 19.1187 125.611 17.0482C125.606 16.8678 125.588 16.688 125.557 16.5103C125.409 15.3406 124.843 14.6952 123.913 14.628C122.431 14.507 121.556 14.991 121.273 16.228C121.111 16.9473 121.029 17.6823 121.03 18.4196C120.99 20.033 121.017 21.6465 121.017 23.2599V24.0129H117.904V12.3826H120.841C120.868 12.8532 120.882 13.2969 120.909 13.8885C121.192 13.5927 121.367 13.3776 121.569 13.1759C122.957 11.8717 125.786 11.6835 127.335 12.786C127.79 13.1217 128.157 13.5626 128.403 14.0708C128.65 14.579 128.769 15.1393 128.75 15.7036C128.831 18.4599 128.791 21.2028 128.791 24.0129Z" fill="#141414"/>
<path d="M81.148 16.481H78.0626C77.5911 15.0021 77.0117 14.5046 75.7183 14.4911C74.5057 14.4777 73.6434 15.1231 73.1988 16.4273C72.7951 17.5785 72.7809 18.8302 73.1584 19.9903C73.284 20.5422 73.5994 21.0328 74.0498 21.3767C74.5003 21.7206 75.0573 21.8961 75.624 21.8726C76.877 21.8592 77.645 21.2542 78.0492 19.9634C78.0761 19.8558 78.1165 19.7483 78.1569 19.6273H81.1749C80.9459 22.276 79.0057 24.0777 76.136 24.3063C73.3605 24.5214 71.0296 23.1365 70.1135 20.7432C69.103 18.0676 69.9383 14.7197 72.0267 13.1735C74.0611 11.6542 77.5641 11.7079 79.5312 13.2945C80.0301 13.6639 80.436 14.1441 80.7167 14.6972C80.9973 15.2503 81.145 15.8611 81.148 16.481Z" fill="#141414"/>
<path d="M90.5798 15.1255C87.4405 14.8835 86.2818 15.9457 86.2549 19.0516C86.2414 20.6785 86.2549 22.3188 86.2549 23.9995H83.1426V12.4095H86.1067V14.4129C86.4839 13.9558 86.7534 13.5659 87.0767 13.2432C87.4565 12.8608 87.9105 12.5598 88.4109 12.3586C88.9113 12.1575 89.4476 12.0604 89.9869 12.0734C90.3911 12.0734 90.6067 12.1944 90.5932 12.6516C90.5528 13.4717 90.5798 14.2919 90.5798 15.1255Z" fill="#141414"/>
<path d="M23.9146 20.4167H19.0508C19.3337 19.5831 19.5897 18.7898 19.8861 18.0368C19.94 17.9024 20.2364 17.8083 20.425 17.8083C21.2334 17.7814 22.0283 17.7948 22.958 17.7948C22.7786 17.1303 22.5535 16.4789 22.2843 15.8453C21.8802 15.1134 21.6649 14.2927 21.6578 13.4571C21.6508 12.6215 21.8522 11.7973 22.2439 11.0587C22.5621 10.3027 22.8409 9.53082 23.0793 8.74609C25.0194 13.9091 26.8922 18.9377 28.8188 24.0738C27.6062 24.0738 26.4745 24.0873 25.3427 24.0469C25.208 24.0469 25.0329 23.778 24.9655 23.5898C24.6152 22.5545 24.2784 21.5192 23.9146 20.4167Z" fill="#141414"/>
<path d="M13.002 24.0668C15.0633 18.6348 17.0843 13.3239 19.1188 7.97266H22.2041C21.6652 9.53232 21.1397 11.0516 20.6143 12.5575C19.3613 16.1878 18.0948 19.8046 16.8418 23.4348C16.6801 23.9054 16.478 24.1071 15.9391 24.0802C15.0229 24.0264 14.0798 24.0668 13.002 24.0668Z" fill="#141414"/>
<path d="M33.7097 23.9054H30.2202V23.1649C30.2202 21.0496 30.2067 18.9339 30.2336 16.8186C30.2384 16.3567 30.311 15.8979 30.4492 15.4569C31.2037 13.183 31.9986 10.9086 32.7396 8.63471C32.9013 8.13239 33.1304 7.93555 33.6962 8.10604C33.7097 13.3546 33.7097 18.6037 33.7097 23.9054Z" fill="#141414"/>
<path d="M30.2617 12.3049V8.0293H31.8111C31.3261 9.46795 30.8545 10.8932 30.383 12.3184C30.3426 12.3184 30.3021 12.3049 30.2617 12.3049Z" fill="#141414"/>
</g>
<defs>
<clipPath id="clip0_8177_755">
<rect width="128.8" height="32" fill="white"/>
</clipPath>
</defs>
</svg>
