<svg width="17" height="17" viewBox="0 0 17 17" fill="none" xmlns="http://www.w3.org/2000/svg">
<circle cx="8.5" cy="8.5" r="8.5" fill="#0071E2"/>
<path d="M13.4811 5.8994C13.4315 6.14623 13.2779 6.32445 13.1051 6.49681C11.3029 8.2954 9.5028 10.0964 7.70324 11.8977C7.45715 12.144 7.1715 12.249 6.8363 12.1308C6.71545 12.0884 6.59753 12.008 6.50598 11.917C5.58801 11.0076 4.67443 10.093 3.76208 9.17723C3.38903 8.80272 3.4176 8.26415 3.82629 7.9536C4.11975 7.7307 4.56555 7.7368 4.89391 8.06883C5.59753 8.77977 6.30773 9.48436 7.01476 10.1919C7.03747 10.2146 7.05529 10.2424 7.08044 10.2742C7.11926 10.238 7.14733 10.2131 7.17394 10.1865C8.8114 8.5493 10.4491 6.9121 12.0861 5.27416C12.3236 5.03661 12.5992 4.93724 12.9278 5.04076C13.2147 5.13109 13.3866 5.33299 13.4613 5.62157C13.4669 5.64305 13.4745 5.66405 13.4811 5.68505C13.4811 5.75658 13.4811 5.82811 13.4811 5.8994Z" fill="#F5F5F8"/>
</svg>
